<?xml version="1.0" encoding="UTF-8"?>
<svg id="_Слой_1" data-name="Слой 1" xmlns="http://www.w3.org/2000/svg" xmlns:xlink="http://www.w3.org/1999/xlink" viewBox="0 0 283.46 283.46">
  <defs>
    <style>
      .cls-1 {
        fill: url(#_Безымянный_градиент_3);
      }
    </style>
    <linearGradient id="_Безымянный_градиент_3" data-name="Безымянный градиент 3" x1="95.41" y1="231.3" x2="215.31" y2="65" gradientUnits="userSpaceOnUse">
      <stop offset="0" stop-color="#71b8e7"/>
      <stop offset="1" stop-color="#438ccb"/>
    </linearGradient>
  </defs>
  <path class="cls-1" d="m183,139.19c2.74,2.83,4.11,6.33,4.11,10.53v51.31c0,3.23-.77,5.89-2.3,7.99-1.54,2.1-3.27,3.79-5.21,5.08-7.42,4.52-15.53,8.11-24.33,10.77-8.8,2.66-18.03,4-27.72,4-12.26,0-23.72-2.26-34.37-6.78-10.65-4.51-20.01-10.77-28.08-18.76-8.07-7.99-14.4-17.22-19-27.72-4.6-10.49-6.9-21.79-6.9-33.89s2.3-23.4,6.9-33.89c4.6-10.49,10.93-19.73,19-27.72,8.07-7.99,17.43-14.24,28.08-18.76,10.65-4.51,22.11-6.78,34.37-6.78,7.59,0,14.92.81,22.03,2.42,7.1,1.62,13.63,4.04,19.6,7.26,2.42,1.29,4.24,3.02,5.45,5.2,1.21,2.18,1.82,4.4,1.82,6.66,0,3.87-1.3,7.35-3.88,10.41-2.58,3.07-5.89,4.6-9.92,4.6-1.29,0-2.63-.16-4-.49-1.37-.32-2.7-.81-3.99-1.45-4.04-1.78-8.32-3.15-12.83-4.12-4.52-.97-9.28-1.45-14.28-1.45-10.49,0-20.05,2.63-28.68,7.87-8.63,5.24-15.49,12.26-20.57,21.06-5.08,8.8-7.62,18.52-7.62,29.17s2.54,20.17,7.62,29.05c5.08,8.88,11.94,15.94,20.57,21.18,8.63,5.25,18.19,7.87,28.68,7.87,4.84,0,10.17-.49,15.98-1.46,4.81-.8,8.73-1.88,12.1-3.13v-31.25h-22.75c-4.2,0-7.71-1.37-10.53-4.12-2.83-2.74-4.24-6.21-4.24-10.41s1.41-7.66,4.24-10.41c2.82-2.74,6.33-4.11,10.53-4.11h39.69c4.19,0,7.66,1.41,10.41,4.24Zm57.49,60.27c-2.51-2.5-6.09-3.75-10.77-3.75h-3.15c-4.68,0-8.27,1.25-10.77,3.75-2.5,2.51-3.75,6.09-3.75,10.77v4.11c0,4.68,1.25,8.27,3.75,10.77,2.5,2.51,6.09,3.75,10.77,3.75h3.15c4.68,0,8.27-1.25,10.77-3.75s3.75-6.09,3.75-10.77v-4.11c0-4.68-1.25-8.27-3.75-10.77Z"/>
</svg>