<svg width="135" height="33" viewBox="0 0 135 33" fill="none" xmlns="http://www.w3.org/2000/svg">
<path d="M24.5987 15.9603C24.9988 16.3639 25.1988 16.8708 25.1988 17.4714V24.8439C25.1988 25.3085 25.0893 25.6886 24.8654 25.9936C24.6416 26.294 24.3892 26.538 24.1082 26.7257C23.0271 27.3733 21.8412 27.8895 20.56 28.2743C19.2789 28.6592 17.9311 28.8469 16.5166 28.8469C14.7307 28.8469 13.059 28.5231 11.5064 27.8708C9.95379 27.2231 8.58693 26.3221 7.41057 25.1771C6.23422 24.0273 5.31028 22.7039 4.63875 21.1929C3.96723 19.6865 3.63385 18.0627 3.63385 16.3217C3.63385 14.5807 3.96723 12.9616 4.63875 11.4552C5.31028 9.94883 6.23422 8.62075 7.41057 7.47101C8.58693 6.32127 9.95379 5.42494 11.5064 4.77732C13.059 4.12971 14.7307 3.80591 16.5166 3.80591C17.6215 3.80591 18.6931 3.92323 19.7314 4.15318C20.7648 4.38782 21.7174 4.73509 22.5889 5.19499C22.9413 5.3827 23.208 5.63142 23.3843 5.94115C23.5605 6.25557 23.651 6.57468 23.651 6.89849C23.651 7.45693 23.4605 7.95437 23.0842 8.3955C22.708 8.83662 22.2269 9.05719 21.6364 9.05719C21.4459 9.05719 21.2554 9.03372 21.0554 8.9868C20.8553 8.93987 20.6601 8.86947 20.4743 8.78031C19.8838 8.5269 19.2599 8.3298 18.6026 8.18901C17.9454 8.04823 17.2501 7.98253 16.5214 7.98253C14.9926 7.98253 13.5972 8.35796 12.3398 9.1135C11.0825 9.86905 10.0824 10.8733 9.33942 12.1404C8.59646 13.4028 8.22974 14.8012 8.22974 16.3311C8.22974 17.8609 8.60122 19.2312 9.33942 20.503C10.0824 21.7795 11.0825 22.7931 12.3398 23.5487C13.5972 24.3042 14.9926 24.6796 16.5214 24.6796C17.2262 24.6796 18.0025 24.6092 18.8503 24.4685C19.5504 24.3511 20.1219 24.1963 20.6172 24.0179V19.5269H17.2977C16.6833 19.5269 16.1737 19.3298 15.7641 18.9356C15.3546 18.5414 15.145 18.044 15.145 17.4386C15.145 16.8332 15.3498 16.3358 15.7641 15.9416C16.1737 15.5474 16.6881 15.3503 17.2977 15.3503H23.0842C23.6938 15.3503 24.2034 15.5521 24.6035 15.9603H24.5987Z" fill="url(#paint0_linear_226_289)"/>
<path d="M40.6772 10.4839C40.1962 10.0897 39.6009 9.89258 38.896 9.89258C38.3054 9.89258 37.7196 9.96297 37.1291 10.0991C36.5385 10.2398 35.9861 10.451 35.4717 10.742C34.9526 11.0329 34.4906 11.3896 34.0763 11.8213C33.781 12.1311 33.5333 12.4877 33.319 12.8631V12.361C33.319 11.7603 33.119 11.2535 32.7189 10.8499C32.3189 10.4463 31.814 10.2398 31.1997 10.2398C30.5853 10.2398 30.0805 10.4416 29.6804 10.8499C29.2803 11.2535 29.0803 11.7603 29.0803 12.361V26.7258C29.0803 27.3311 29.2803 27.8333 29.6804 28.2369C30.0805 28.6404 30.5853 28.8469 31.1997 28.8469C31.814 28.8469 32.3189 28.6451 32.7189 28.2369C33.119 27.8333 33.319 27.3265 33.319 26.7258V18.4852C33.319 17.6498 33.4286 16.9271 33.6524 16.3124C33.8762 15.6976 34.1715 15.1814 34.5335 14.7637C34.9002 14.3461 35.3002 14.041 35.7336 13.8439C36.167 13.6468 36.6004 13.5483 37.0195 13.5483C37.491 13.5483 37.9054 13.6281 38.2721 13.7923C38.6388 13.9566 39.0436 14.0363 39.4913 14.0363C39.9628 14.0363 40.3962 13.8674 40.7963 13.5342C41.1963 13.201 41.3963 12.6473 41.3963 11.8823C41.3963 11.3474 41.1535 10.8875 40.6724 10.4933L40.6772 10.4839Z" fill="#EFEEE0"/>
<path d="M57.0176 11.1268C55.5698 10.3055 53.9505 9.89258 52.1645 9.89258C50.3786 9.89258 48.7593 10.3055 47.3115 11.1268C45.8636 11.948 44.7111 13.0884 43.8538 14.5338C42.9966 15.9839 42.5679 17.6592 42.5679 19.5598C42.5679 21.4604 42.9966 23.1358 43.8538 24.5858C44.7111 26.0359 45.8684 27.1669 47.3115 27.9788C48.7593 28.7906 50.3786 29.1942 52.1645 29.1942C53.9505 29.1942 55.5698 28.7906 57.0176 27.9788C58.4654 27.1669 59.618 26.0359 60.4752 24.5858C61.3325 23.1358 61.7611 21.4604 61.7611 19.5598C61.7611 17.6592 61.3325 15.9839 60.4752 14.5338C59.618 13.0837 58.4607 11.948 57.0176 11.1268ZM56.808 22.6055C56.327 23.4736 55.6793 24.1541 54.8649 24.6375C54.0553 25.1255 53.1551 25.3695 52.1645 25.3695C51.1739 25.3695 50.2738 25.1255 49.4641 24.6375C48.6545 24.1494 48.0068 23.4736 47.521 22.6055C47.04 21.7373 46.7971 20.7236 46.7971 19.5598C46.7971 18.396 47.04 17.3495 47.521 16.4813C48.002 15.6131 48.6497 14.9327 49.4641 14.4446C50.2738 13.9566 51.1739 13.7125 52.1645 13.7125C53.1551 13.7125 54.0505 13.9566 54.8649 14.4446C55.6793 14.9327 56.3223 15.6084 56.808 16.4813C57.2891 17.3495 57.532 18.3772 57.532 19.5598C57.532 20.7424 57.2891 21.7326 56.808 22.6055Z" fill="#EFEEE0"/>
<path d="M78.6921 11.1268C77.2443 10.3055 75.625 9.89258 73.839 9.89258C72.0531 9.89258 70.4338 10.3055 68.986 11.1268C67.5381 11.948 66.3856 13.0884 65.5283 14.5338C64.6711 15.9792 64.2424 17.6592 64.2424 19.5598C64.2424 21.4604 64.6711 23.1358 65.5283 24.5858C66.3856 26.0359 67.5429 27.1669 68.986 27.9788C70.4338 28.7906 72.0531 29.1942 73.839 29.1942C75.625 29.1942 77.2443 28.7906 78.6921 27.9788C80.1399 27.1669 81.2925 26.0359 82.1497 24.5858C83.007 23.1358 83.4404 21.4604 83.4404 19.5598C83.4404 17.6592 83.0117 15.9839 82.1497 14.5338C81.2925 13.0837 80.1399 11.948 78.6921 11.1268ZM78.4825 22.6055C77.9968 23.4736 77.3538 24.1541 76.5394 24.6375C75.7298 25.1255 74.8249 25.3695 73.839 25.3695C72.8532 25.3695 71.9483 25.1255 71.1386 24.6375C70.329 24.1494 69.6813 23.4736 69.1955 22.6055C68.7145 21.7373 68.4716 20.7236 68.4716 19.5598C68.4716 18.396 68.7145 17.3495 69.1955 16.4813C69.6765 15.6131 70.3242 14.9327 71.1386 14.4446C71.9483 13.9566 72.8484 13.7125 73.839 13.7125C74.8296 13.7125 75.7298 13.9566 76.5394 14.4446C77.349 14.9327 77.9968 15.6084 78.4825 16.4813C78.9636 17.3495 79.2064 18.3772 79.2064 19.5598C79.2064 20.7424 78.9636 21.7326 78.4825 22.6055Z" fill="#EFEEE0"/>
<path d="M101.3 10.2728C100.452 10.2259 99.8284 10.667 99.4283 11.5962L94.5991 22.5445L89.7222 11.5633C89.5317 11.1222 89.2507 10.7937 88.8744 10.5731C88.4982 10.3526 88.0839 10.2446 87.6409 10.2446C87.0075 10.2446 86.4979 10.4464 86.1217 10.8547C85.7454 11.2583 85.5549 11.6713 85.5549 12.0889C85.5549 12.3423 85.5835 12.5629 85.6407 12.7506C85.6978 12.9383 85.755 13.0885 85.7978 13.2011L92.3607 27.5283C92.575 28.0164 92.8845 28.373 93.2989 28.6077C93.7085 28.8423 94.1419 28.9221 94.5848 28.8517C95.4087 28.8048 96.0088 28.3637 96.385 27.5283L102.986 13.2011C103.057 13.0369 103.119 12.8632 103.181 12.6802C103.238 12.4972 103.272 12.3189 103.272 12.1593C103.272 11.6243 103.091 11.1785 102.724 10.8218C102.357 10.4605 101.881 10.2822 101.295 10.2822L101.3 10.2728Z" fill="#EFEEE0"/>
<path d="M120.712 12.6238C119.888 11.7791 118.941 11.1127 117.869 10.6247C116.797 10.1366 115.664 9.89258 114.464 9.89258C112.911 9.89258 111.44 10.2868 110.054 11.0752C108.668 11.8636 107.539 12.9945 106.682 14.4681C105.825 15.9416 105.396 17.7202 105.396 19.8085C105.396 21.5965 105.791 23.1921 106.577 24.6093C107.368 26.0218 108.496 27.1434 109.963 27.9647C111.43 28.7859 113.168 29.1989 115.169 29.1989C116.345 29.1989 117.488 29.0065 118.593 28.6264C119.698 28.2416 120.56 27.7957 121.17 27.2889C121.827 26.7774 122.155 26.2096 122.155 25.5854C122.155 25.1208 121.984 24.7172 121.646 24.37C121.303 24.0227 120.874 23.8491 120.36 23.8491C119.984 23.8491 119.584 23.9523 119.16 24.1635C118.903 24.3043 118.612 24.4732 118.298 24.6656C117.979 24.8627 117.559 25.0317 117.045 25.1678C116.526 25.3085 115.835 25.3742 114.964 25.3742C114.021 25.3742 113.135 25.149 112.297 24.6985C111.463 24.248 110.778 23.5863 110.249 22.7134C109.939 22.2066 109.735 21.6294 109.606 20.9911H121.246C121.812 20.9911 122.303 20.8175 122.727 20.4702C123.151 20.123 123.375 19.6724 123.398 19.114C123.398 17.861 123.156 16.6784 122.674 15.5662C122.193 14.454 121.536 13.4732 120.717 12.6285L120.712 12.6238ZM110.901 14.9374C111.349 14.4962 111.878 14.1865 112.492 13.9988C113.106 13.8158 113.764 13.7219 114.469 13.7219C115.173 13.7219 115.888 13.8768 116.531 14.1912C117.178 14.5056 117.717 14.928 118.155 15.4583C118.588 15.9933 118.831 16.5939 118.879 17.265V17.509H109.635C109.692 17.2228 109.758 16.9506 109.844 16.7113C110.101 15.9698 110.454 15.3785 110.901 14.9374Z" fill="#EFEEE0"/>
<path d="M130.823 24.9659C130.457 24.6046 129.933 24.4263 129.252 24.4263H128.794C128.113 24.4263 127.589 24.6046 127.223 24.9659C126.856 25.3273 126.675 25.8435 126.675 26.5146V27.1059C126.675 27.777 126.856 28.2932 127.223 28.6545C127.585 29.0159 128.109 29.1942 128.794 29.1942H129.252C129.933 29.1942 130.457 29.0159 130.823 28.6545C131.185 28.2932 131.371 27.7816 131.371 27.1059V26.5146C131.371 25.8435 131.19 25.3273 130.823 24.9659Z" fill="#EFEEE0"/>
<defs>
<linearGradient id="paint0_linear_226_289" x1="8.58693" y1="26.8946" x2="25.7373" y2="2.75867" gradientUnits="userSpaceOnUse">
<stop stop-color="#71B8E7"/>
<stop offset="1" stop-color="#438CCB"/>
</linearGradient>
</defs>
</svg>
